<?xml version="1.0" encoding="utf-8"?>
<!-- Generator: Adobe Illustrator 23.0.1, SVG Export Plug-In . SVG Version: 6.00 Build 0)  -->
<svg version="1.1" id="Layer_1" xmlns="http://www.w3.org/2000/svg" xmlns:xlink="http://www.w3.org/1999/xlink" x="0px" y="0px"
	 viewBox="0 0 500 544" style="enable-background:new 0 0 500 544;" xml:space="preserve">
<style type="text/css">
	.st0{fill:#FFFFFF;stroke:#000222;stroke-miterlimit:10;}
	.st1{fill:#FFFFFF;stroke:#B2B2B2;stroke-miterlimit:10;}
	.st2{fill:#FF9F50;}
	.st3{font-family:'ArialMT';}
	.st4{font-size:41.5973px;}
	.st5{fill:#D1D1D1;}
	.st6{fill:#EAEAEA;}
	.st7{fill:#D8D8D8;}
	.st8{fill:#DDDDDD;}
	.st9{fill:none;stroke:#000000;stroke-linecap:round;stroke-linejoin:round;stroke-miterlimit:10;}
	.st10{fill:#FFFFFF;stroke:#000000;stroke-linecap:round;stroke-linejoin:round;stroke-miterlimit:10;}
	.st11{fill:#FFFFFF;stroke:#231F20;stroke-linecap:round;stroke-linejoin:round;stroke-miterlimit:10;}
	.st12{fill:#FFFFFF;stroke:#222222;stroke-miterlimit:10;}
	.st13{fill:#EDA594;}
	.st14{fill:#222222;}
	.st15{fill:none;stroke:#222222;stroke-linecap:round;stroke-miterlimit:10;}
	.st16{fill:#FCDBD8;}
	.st17{fill:none;stroke:#E99585;stroke-linecap:round;stroke-miterlimit:10;}
</style>
<g>
	<g>
		<g>
			
				<rect x="61" y="76.2" transform="matrix(0.9482 -0.3176 0.3176 0.9482 -65.7744 75.9907)" class="st0" width="278.4" height="327"/>
			
				<rect x="77.4" y="89" transform="matrix(0.9482 -0.3176 0.3176 0.9482 -66.4966 75.9273)" class="st1" width="244.5" height="305.7"/>
			
				<rect x="272.9" y="64.3" transform="matrix(0.9482 -0.3176 0.3176 0.9482 -9.4799 91.672)" class="st2" width="7.1" height="21.2"/>
			<text transform="matrix(0.9482 -0.3176 0.3176 0.9482 84.5485 158.5291)" class="st2 st3 st4">insurance</text>
		</g>
		
			<rect x="57.5" y="155.2" transform="matrix(0.9482 -0.3176 0.3176 0.9482 -41.5022 62.8666)" class="st5" width="229.2" height="7.1"/>
		
			<rect x="62.1" y="170.9" transform="matrix(0.9482 -0.3176 0.3176 0.9482 -47.0602 60.1999)" class="st6" width="198" height="7.1"/>
		
			<rect x="64.9" y="176.8" transform="matrix(0.9482 -0.3176 0.3176 0.9482 -47.9856 66.3603)" class="st7" width="229.2" height="7.1"/>
		
			<rect x="84.8" y="236.3" transform="matrix(0.9482 -0.3176 0.3176 0.9482 -65.8634 75.7453)" class="st5" width="229.2" height="7.1"/>
		
			<rect x="88.4" y="247" transform="matrix(0.9482 -0.3176 0.3176 0.9482 -69.059 77.4344)" class="st8" width="229.2" height="7.1"/>
		
			<rect x="96" y="269.7" transform="matrix(0.9482 -0.3176 0.3176 0.9482 -75.8907 81.0462)" class="st5" width="229.2" height="7.1"/>
		
			<rect x="107.8" y="305.2" transform="matrix(0.9482 -0.3176 0.3176 0.9482 -86.5489 86.6154)" class="st5" width="229.2" height="7.1"/>
	</g>
</g>
<g>
	<line class="st9" x1="277.7" y1="287.3" x2="348.3" y2="285.8"/>
	<path class="st10" d="M348.3,279.8l66.9,1.5c5.5,0,10.3,2.1,14.5,5.5c3.9,3.3,7,8.2,8.2,13.6c1.5,6.4,2.7,14.2,3,21.8
		c0.6,7.9,0,15.7-1.5,22.7c-0.6,2.7-0.9,5.8-0.6,8.5s1.2,5.8,2.4,8.2c5.5,11.5,23.3,28.2,19.4,55.4c5.1,22.4,6.4,46-3.3,62.1
		c-1.2,1.8-1.8,3.6-2.4,5.8c-0.6,2.1-0.9,4.2-0.9,6.4c0,2.4,0,5.5,0.3,8.5c0,2.7,0,5.5-0.9,7.6c-1.2,3.3-32.4,9.7-73,12.1
		c-10.3,0.6-20.9,1.2-32.1,1.2c-11.2,0-21.8-0.6-32.1-1.2c-40.9-2.7-71.8-9.1-73-12.1c-0.6-2.1-0.9-4.8-0.9-7.6s0.3-5.8,0.3-8.5
		c0-2.1-0.3-4.2-0.9-6.4c-0.6-2.1-1.5-3.9-2.4-5.8c-10-16.4-8.5-39.7-3.3-62.1c-3.9-26.9,14.2-43.6,19.4-55.4
		c1.2-2.7,2.1-5.5,2.4-8.2s0.3-5.8-0.6-8.5c-1.8-7-2.1-15.1-1.5-22.7c0.6-7.9,1.8-15.4,3-21.8c1.2-5.5,3.9-10.3,8.2-13.6
		c3.9-3.3,9.1-5.5,14.5-5.5L348.3,279.8L348.3,279.8z"/>
	<line class="st9" x1="417.6" y1="287.3" x2="347.1" y2="285.8"/>
	<path class="st11" d="M282.3,403.9c0,0-4.8,17-3.3,26.9c0.6,4.2,0,8.2-1.2,12.1c-0.9,3-1.2,7-0.6,12.4c0.6,4.2,0.6,8.8-0.6,13
		c-1.5,5.5-3,13.3-0.6,19.1c1.8,4.5,2.4,9.7,2.1,14.5c-0.3,6.7,0.3,15.1,4.2,18.2c0,0-8.8,14.8,10.9,14.8c2.7,0,5.1,0.9,7.3,2.4
		c1.8,1.5,5.5,2.7,11.8,0.9c3-0.9,6.1-0.6,8.8,0c2.4,0.6,6.4-0.3,13-5.5c0,0,11.2-2.1,9.4-16.4c-0.3-3.6,0-7.6,0.9-10.9
		c0.9-4.2,1.8-10,0.6-15.7c-0.9-4.5-1.2-9.1-0.3-13.6c0.9-3.6,1.2-8.5-0.6-13.9c-1.2-4.2-1.8-8.5-1.5-13c0.3-3.9,0-8.8-1.8-13
		c-1.8-4.2-2.4-9.1-2.4-13.6c0-2.4-0.3-5.1-0.6-9.1"/>
	<path class="st11" d="M408.2,400.6c0,0,5.8,16.7,5.1,26.9c-0.3,4.2,0.6,8.5,1.8,12.1c0.9,3,1.8,7,1.2,12.4c-0.3,4.5,0,9.1,1.5,13
		c1.8,5.5,3.9,13.3,1.8,19.1c-1.5,4.5-1.8,10-1.2,14.8c0.9,6.7,0.9,15.1-3,18.8c0,0,9.7,14.2-10,15.7c-2.7,0.3-5.1,1.2-7,3
		c-1.8,1.8-5.5,3.3-11.5,2.1c-3-0.6-6.1,0-8.8,0.6c-2.4,0.6-6.4,0.3-13.3-4.5c0,0-11.2-1.2-10.6-15.7c0.3-3.6-0.3-7.6-1.5-10.9
		c-1.2-3.9-2.4-9.7-1.8-15.7c0.6-4.5,0.6-9.4-0.6-13.6c-1.2-3.6-1.8-8.5-0.3-13.9c1.2-4.2,1.2-8.8,0.6-13c-0.6-3.9-0.6-8.8,0.9-13.3
		s1.8-9.4,1.5-13.9c0-2.4,0-5.1,0-9.1"/>
	<path class="st12" d="M219.6,182.9c0,0,1.5-43,42.1-38.2c0,0,7-37.5,48.4-22.7c0,0,21.2-22.7,55.4-8.5c0,0,19.7-10.9,39.1,8.5
		c0,0,34.5-7.3,40,21.8c0,0,22.7,4.2,24.2,35.4c0,0,25.7,13.9,17.3,34.5c0,0,21.5,15.1,1.8,35.1c0,0,18.2,23.9-6.7,39.4
		c0,0,6.1,18.8-7.9,25.1c0,0,2.1,21.5-21.2,30c0,0-7,26-41.5,20.3c0,0-6.1,22.4-42.1,8.2c0,0-35.1,20.6-60.3,0
		c0,0-36,11.8-47.5-12.4c0,0-37.5-3.9-36-33.6c0,0-29.7-9.4-13.9-44.5c0,0-24.2-18.5-1.5-50.3C209.6,231,184.2,200.4,219.6,182.9z"
		/>
	<g>
		<path class="st13" d="M347.4,261.3c0,0-1.8,6.4-14.5,11.2c0,0-4.5,28.5,13.6,27.6c18.2-0.9,15.4-27.6,15.4-27.6
			S347.7,267.3,347.4,261.3z"/>
		<ellipse class="st14" cx="325.9" cy="243.1" rx="7.9" ry="11.2"/>
		<ellipse class="st14" cx="371" cy="243.1" rx="7.9" ry="11.2"/>
		<path class="st14" d="M347.4,251.3c-6.4-0.3-9.1,2.4-9.1,2.4v0.3c0.6,7.9,9.1,7.6,9.1,7.6s8.5,0.3,9.1-7.6v-0.3
			C356.4,253.4,353.7,250.7,347.4,251.3z"/>
		<g>
			<path class="st15" d="M347.4,260.7c5.8,15.1,27.6,13.6,33.9,4.2"/>
			<path class="st15" d="M346.2,260.7c-5.8,15.1-26.6,14.2-33.9,4.2"/>
			<path class="st15" d="M332.5,272.5c-0.3,10.3-1.5,28.8,14.5,27.6c16-1.2,14.2-27.6,14.2-27.6"/>
		</g>
	</g>
	<ellipse class="st16" cx="427.3" cy="260.7" rx="26.3" ry="14.8"/>
	<ellipse class="st16" cx="268" cy="260.7" rx="26.3" ry="14.8"/>
	<polyline class="st17" points="346.2,276.4 345.9,285.8 345.9,291.3 	"/>
</g>
</svg>
