<?xml version="1.0" encoding="utf-8"?>
<!-- Generator: Adobe Illustrator 23.0.1, SVG Export Plug-In . SVG Version: 6.00 Build 0)  -->
<svg version="1.1" id="Layer_1" xmlns="http://www.w3.org/2000/svg" xmlns:xlink="http://www.w3.org/1999/xlink" x="0px" y="0px"
	 viewBox="0 0 500 544" style="enable-background:new 0 0 500 544;" xml:space="preserve">
<style type="text/css">
	.st0{fill:none;stroke:#000000;stroke-linecap:round;stroke-linejoin:round;stroke-miterlimit:10;}
	.st1{fill:#FFFFFF;stroke:#000000;stroke-linecap:round;stroke-linejoin:round;stroke-miterlimit:10;}
	.st2{fill:#FFFFFF;stroke:#231F20;stroke-linecap:round;stroke-linejoin:round;stroke-miterlimit:10;}
	.st3{fill:#FFFFFF;stroke:#222222;stroke-miterlimit:10;}
	.st4{fill:#EDA594;}
	.st5{fill:#222222;}
	.st6{fill:none;stroke:#222222;stroke-linecap:round;stroke-miterlimit:10;}
	.st7{fill:#FCDBD8;}
	.st8{fill:none;stroke:#E99585;stroke-linecap:round;stroke-miterlimit:10;}
	.st9{stroke:#000000;stroke-linecap:round;stroke-linejoin:round;stroke-miterlimit:10;}
	.st10{fill:#FF6A52;}
</style>
<g>
	<line class="st0" x1="277.2" y1="287" x2="347.8" y2="285.5"/>
	<path class="st1" d="M347.8,279.5l66.9,1.5c5.5,0,10.3,2.1,14.5,5.5c3.9,3.3,7,8.2,8.2,13.6c1.5,6.4,2.7,14.2,3,21.8
		c0.6,7.9,0,15.7-1.5,22.7c-0.6,2.7-0.9,5.8-0.6,8.5s1.2,5.8,2.4,8.2c5.5,11.5,23.3,28.2,19.4,55.4c5.1,22.4,6.4,46-3.3,62.1
		c-1.2,1.8-1.8,3.6-2.4,5.8c-0.6,2.1-0.9,4.2-0.9,6.4c0,2.4,0,5.5,0.3,8.5c0,2.7,0,5.5-0.9,7.6c-1.2,3.3-32.4,9.7-73,12.1
		c-10.3,0.6-20.9,1.2-32.1,1.2s-21.8-0.6-32.1-1.2c-40.9-2.7-71.8-9.1-73-12.1c-0.6-2.1-0.9-4.8-0.9-7.6s0.3-5.8,0.3-8.5
		c0-2.1-0.3-4.2-0.9-6.4c-0.6-2.1-1.5-3.9-2.4-5.8c-10-16.4-8.5-39.7-3.3-62.1c-3.9-26.9,14.2-43.6,19.4-55.4
		c1.2-2.7,2.1-5.5,2.4-8.2s0.3-5.8-0.6-8.5c-1.8-7-2.1-15.1-1.5-22.7c0.6-7.9,1.8-15.4,3-21.8c1.2-5.5,3.9-10.3,8.2-13.6
		c3.9-3.3,9.1-5.5,14.5-5.5L347.8,279.5L347.8,279.5z"/>
	<line class="st0" x1="417.1" y1="287" x2="346.6" y2="285.5"/>
	<path class="st2" d="M281.8,403.6c0,0-4.8,17-3.3,26.9c0.6,4.2,0,8.2-1.2,12.1c-0.9,3-1.2,7-0.6,12.4c0.6,4.2,0.6,8.8-0.6,13
		c-1.5,5.5-3,13.3-0.6,19.1c1.8,4.5,2.4,9.7,2.1,14.5c-0.3,6.7,0.3,15.1,4.2,18.2c0,0-8.8,14.8,10.9,14.8c2.7,0,5.1,0.9,7.3,2.4
		c1.8,1.5,5.5,2.7,11.8,0.9c3-0.9,6.1-0.6,8.8,0c2.4,0.6,6.4-0.3,13-5.5c0,0,11.2-2.1,9.4-16.4c-0.3-3.6,0-7.6,0.9-10.9
		c0.9-4.2,1.8-10,0.6-15.7c-0.9-4.5-1.2-9.1-0.3-13.6c0.9-3.6,1.2-8.5-0.6-13.9c-1.2-4.2-1.8-8.5-1.5-13c0.3-3.9,0-8.8-1.8-13
		s-2.4-9.1-2.4-13.6c0-2.4-0.3-5.1-0.6-9.1"/>
	<path class="st2" d="M407.7,400.3c0,0,5.8,16.7,5.1,26.9c-0.3,4.2,0.6,8.5,1.8,12.1c0.9,3,1.8,7,1.2,12.4c-0.3,4.5,0,9.1,1.5,13
		c1.8,5.5,3.9,13.3,1.8,19.1c-1.5,4.5-1.8,10-1.2,14.8c0.9,6.7,0.9,15.1-3,18.8c0,0,9.7,14.2-10,15.7c-2.7,0.3-5.1,1.2-7,3
		c-1.8,1.8-5.5,3.3-11.5,2.1c-3-0.6-6.1,0-8.8,0.6c-2.4,0.6-6.4,0.3-13.3-4.5c0,0-11.2-1.2-10.6-15.7c0.3-3.6-0.3-7.6-1.5-10.9
		c-1.2-3.9-2.4-9.7-1.8-15.7c0.6-4.5,0.6-9.4-0.6-13.6c-1.2-3.6-1.8-8.5-0.3-13.9c1.2-4.2,1.2-8.8,0.6-13c-0.6-3.9-0.6-8.8,0.9-13.3
		s1.8-9.4,1.5-13.9c0-2.4,0-5.1,0-9.1"/>
	<path class="st3" d="M219.1,182.6c0,0,1.5-43,42.1-38.2c0,0,7-37.5,48.4-22.7c0,0,21.2-22.7,55.4-8.5c0,0,19.7-10.9,39.1,8.5
		c0,0,34.5-7.3,40,21.8c0,0,22.7,4.2,24.2,35.4c0,0,25.7,13.9,17.3,34.5c0,0,21.5,15.1,1.8,35.1c0,0,18.2,23.9-6.7,39.4
		c0,0,6.1,18.8-7.9,25.1c0,0,2.1,21.5-21.2,30c0,0-7,26-41.5,20.3c0,0-6.1,22.4-42.1,8.2c0,0-35.1,20.6-60.3,0
		c0,0-36,11.8-47.5-12.4c0,0-37.5-3.9-36-33.6c0,0-29.7-9.4-13.9-44.5c0,0-24.2-18.5-1.5-50.3C209.1,230.7,183.7,200.1,219.1,182.6z
		"/>
	<g>
		<path class="st4" d="M346.9,261c0,0-1.8,6.4-14.5,11.2c0,0-4.5,28.5,13.6,27.6c18.2-0.9,15.4-27.6,15.4-27.6S347.2,267,346.9,261z
			"/>
		<ellipse class="st5" cx="325.4" cy="242.8" rx="7.9" ry="11.2"/>
		<ellipse class="st5" cx="370.5" cy="242.8" rx="7.9" ry="11.2"/>
		<path class="st5" d="M346.9,251c-6.4-0.3-9.1,2.4-9.1,2.4v0.3c0.6,7.9,9.1,7.6,9.1,7.6s8.5,0.3,9.1-7.6v-0.3
			C355.9,253.1,353.2,250.4,346.9,251z"/>
		<g>
			<path class="st6" d="M346.9,260.4c5.8,15.1,27.6,13.6,33.9,4.2"/>
			<path class="st6" d="M345.7,260.4c-5.8,15.1-26.6,14.2-33.9,4.2"/>
			<path class="st6" d="M332,272.2c-0.3,10.3-1.5,28.8,14.5,27.6c16-1.2,14.2-27.6,14.2-27.6"/>
		</g>
	</g>
	<ellipse class="st7" cx="426.8" cy="260.4" rx="26.3" ry="14.8"/>
	<ellipse class="st7" cx="267.5" cy="260.4" rx="26.3" ry="14.8"/>
	<polyline class="st8" points="345.7,276.1 345.4,285.5 345.4,291 	"/>
	<path class="st9" d="M330.5,208.3L203.9,198c0,0-10.9-47.2-2.7-69.6l-86.9-18.2L291.2,13h-0.3l200.7,21.5L418,78.4
		c16,17.6,24.2,65.4,24.2,65.4l-112,64.8L330.5,208.3z"/>
	<path class="st10" d="M114.3,109.2c0,0-34.7,32.7-44.6,52.3c0,0,21.8,11.5,35.8,10.6C105.3,172.4,112.9,148.6,114.3,109.2z"/>
</g>
</svg>
