<?xml version="1.0" encoding="utf-8"?>
<!-- Generator: Adobe Illustrator 23.0.1, SVG Export Plug-In . SVG Version: 6.00 Build 0)  -->
<svg version="1.1" id="Layer_1" xmlns="http://www.w3.org/2000/svg" xmlns:xlink="http://www.w3.org/1999/xlink" x="0px" y="0px"
	 viewBox="0 0 127.6 127.6" style="enable-background:new 0 0 127.6 127.6;" xml:space="preserve">
<style type="text/css">
	.st0{fill:#FFFFFF;stroke:#000000;stroke-miterlimit:10;}
	.st1{fill:#EDA594;}
	.st2{fill:none;stroke:#000000;stroke-linecap:round;stroke-miterlimit:10;}
	.st3{fill:#FCDBD8;}
	.st4{fill:none;stroke:#E99585;stroke-linecap:round;stroke-miterlimit:10;}
</style>
<path class="st0" d="M22.1,43.3c0,0,0.5-14.2,13.9-12.6c0,0,2.3-12.4,16-7.5c0,0,7-7.5,18.3-2.8c0,0,6.5-3.6,12.9,2.8
	c0,0,11.4-2.4,13.2,7.2c0,0,7.5,1.4,8,11.7c0,0,8.5,4.6,5.7,11.4c0,0,7.1,5,0.6,11.6c0,0,8.5,8-2.2,13c0,0,3.8,7.1-2.6,8.3
	c0,0,0.7,7.1-7,9.9c0,0,0.8,6.5-13.7,6.7c0,0-2,7.4-13.9,2.7c0,0-11.6,6.8-19.9,0c0,0-11.9,3.9-15.7-4.1c0,0-12.4-1.3-11.9-11.1
	c0,0-9.8-3.1-4.6-14.7c0,0-8-6.1-0.5-16.6C18.8,59.2,10.4,49.1,22.1,43.3z"/>
<g>
	<path class="st1" d="M64.3,69.2c0,0-0.6,2.1-4.8,3.7c0,0-1.5,9.4,4.5,9.1s5.1-9.1,5.1-9.1S64.4,71.2,64.3,69.2z"/>
	<ellipse cx="57.2" cy="63.2" rx="2.6" ry="3.7"/>
	<ellipse cx="72.1" cy="63.2" rx="2.6" ry="3.7"/>
	<path d="M64.3,65.9c-2.1-0.1-3,0.8-3,0.8v0.1c0.2,2.6,3,2.5,3,2.5s2.8,0.1,3-2.5v-0.1C67.3,66.6,66.4,65.7,64.3,65.9z"/>
	<g>
		<path class="st2" d="M64.3,69c1.9,5,9.1,4.5,11.2,1.4"/>
		<path class="st2" d="M63.9,69c-1.9,5-8.8,4.7-11.2,1.4"/>
		<path class="st2" d="M59.4,72.9c-0.1,3.4-0.5,9.5,4.8,9.1c5.3-0.4,4.7-9.1,4.7-9.1"/>
	</g>
</g>
<ellipse class="st3" cx="90.7" cy="69" rx="8.7" ry="4.9"/>
<ellipse class="st3" cx="38.1" cy="69" rx="8.7" ry="4.9"/>
<polyline class="st4" points="63.9,74.2 63.8,77.3 63.8,79.1 "/>
</svg>
