<?xml version="1.0" encoding="utf-8"?>
<!-- Generator: Adobe Illustrator 23.0.1, SVG Export Plug-In . SVG Version: 6.00 Build 0)  -->
<svg version="1.1" id="Layer_1" xmlns="http://www.w3.org/2000/svg" xmlns:xlink="http://www.w3.org/1999/xlink" x="0px" y="0px"
	 viewBox="0 0 69.7 69.2" style="enable-background:new 0 0 69.7 69.2;" xml:space="preserve">
<style type="text/css">
	.st0{fill:#618FFC;}
</style>
<path class="st0" d="M26.2,41.1c0,0,4.3-6.1,13-6.5c0,0,4.3,4.2-3,11.5C36.1,46.1,27.3,47.3,26.2,41.1z"/>
<g>
	<g>
		<path class="st0" d="M57.7,0H12.4c-6.6,0-12,5.4-12,12v4.8c2.3-0.4,5.8-0.9,9.9-0.9c0,0,10.3-19.1,19.1-11.5c0,0,7,8.1-5,8.1
			c0,0-8.6,0.9-9.3,4.3c0,0,7.1,0.3,15.7,11.6c0,0,20.3-5,16.3,16.9S16.4,67.2,16.4,67.2l-0.3,2h41.6c6.6,0,12-5.4,12-12V12
			C69.7,5.4,64.3,0,57.7,0z"/>
	</g>
</g>
</svg>
