<?xml version="1.0" encoding="utf-8"?>
<!-- Generator: Adobe Illustrator 24.0.1, SVG Export Plug-In . SVG Version: 6.00 Build 0)  -->
<svg version="1.1" id="Layer_1" xmlns="http://www.w3.org/2000/svg" xmlns:xlink="http://www.w3.org/1999/xlink" x="0px" y="0px"
	 viewBox="0 0 323.6 79.8" style="enable-background:new 0 0 323.6 79.8;" xml:space="preserve">
<style type="text/css">
	.st0{display:none;fill:#35BDB1;}
	.st1{enable-background:new    ;}
	.st2{fill:#618FFC;}
	.st3{fill:#AAAAAA;}
</style>
<path class="st0" d="M57.3,70.1H12.6c-6.6,0-12-5.4-12-12V11.8c0-6.6,5.4-12,12-12h44.7c6.6,0,12,5.4,12,12v46.3
	C69.3,64.7,63.9,70.1,57.3,70.1z"/>
<g class="st1">
	<path class="st2" d="M77.1,79.1V28.6c0-1.2,0.2-2.2,0.6-3.1c0.4-0.9,0.9-1.6,1.6-2.2c0.7-0.6,1.4-1.1,2.3-1.4
		c0.9-0.3,1.8-0.5,2.7-0.5c1.4,0,2.7,0.3,3.9,1s2.1,1.7,2.8,3c1.4-1.3,3-2.3,4.9-3c1.8-0.7,3.7-1,5.5-1c2.4,0,4.6,0.3,6.7,1
		c2.1,0.6,4,1.7,5.6,3.3c1.6,1.5,2.9,3.6,3.8,6.1c0.9,2.5,1.4,5.7,1.4,9.5v6.5c0,3.8-0.5,7-1.4,9.5c-0.9,2.5-2.2,4.6-3.8,6.1
		c-1.6,1.5-3.5,2.6-5.6,3.3c-2.1,0.6-4.4,1-6.7,1c-1.8,0-3.6-0.3-5.2-0.8c-1.6-0.5-3.1-1.2-4.5-2.2v14.4H77.1z M104.1,40.3
		c0-1.2-0.2-2.2-0.6-3.1c-0.4-0.8-0.9-1.5-1.5-2.1c-0.6-0.5-1.3-0.9-2-1.1c-0.7-0.2-1.4-0.3-2-0.3c-0.6,0-1.3,0.1-2.1,0.3
		c-0.7,0.2-1.4,0.6-2.1,1.1c-0.6,0.5-1.1,1.2-1.5,2.1c-0.4,0.8-0.6,1.9-0.6,3.1v8.9c0,1.2,0.3,2.1,0.7,2.9s0.9,1.4,1.5,1.9
		c0.6,0.5,1.3,0.8,2,1c0.7,0.2,1.4,0.3,2,0.3c0.6,0,1.3-0.1,2-0.3c0.7-0.2,1.4-0.6,2-1.1c0.6-0.5,1.1-1.2,1.5-2
		c0.4-0.8,0.6-1.8,0.6-3.1V40.3z"/>
	<path class="st2" d="M147.2,67.6c-2.6,0-5.2-0.3-7.8-1c-2.6-0.7-5-1.8-7.2-3.3c-2.1-1.5-3.9-3.6-5.2-6.2c-1.3-2.6-2-5.7-2-9.5v-6.3
		c0-3.8,0.6-7,1.9-9.6c1.3-2.5,2.9-4.6,4.9-6.1c2-1.5,4.2-2.6,6.6-3.3c2.4-0.6,4.8-1,7.1-1c2.5,0,4.9,0.3,7.3,0.9
		c2.4,0.6,4.5,1.7,6.4,3.4c1.9,1.7,3.4,4,4.5,7c1.1,3,1.7,6.9,1.7,11.6c0,0.6,0,1.4-0.1,2.2s-0.2,1.6-0.3,2.2h-25.8v0.1
		c0,1.2,0.3,2.3,0.8,3.1c0.5,0.8,1.2,1.5,2,2c0.8,0.5,1.7,0.9,2.7,1.1c1,0.2,1.9,0.3,2.7,0.3c1.8,0,3.1-0.1,4.1-0.2
		c1-0.1,1.9-0.4,2.9-0.7c0.5-0.2,1.1-0.4,1.6-0.6c0.6-0.2,1.1-0.4,1.8-0.5c1.2-0.1,2.4,0,3.4,0.4c1,0.4,1.8,1.2,2.3,2.3
		c0.8,1.8,0.8,3.4,0,4.9c-0.7,1.5-2,2.7-3.7,3.7c-0.6,0.3-1.3,0.7-2.2,1c-0.9,0.3-1.9,0.6-3,0.9c-1.1,0.3-2.3,0.5-3.6,0.7
		C149.8,67.6,148.5,67.6,147.2,67.6z M145.6,33.1c-0.8,0-1.6,0.1-2.3,0.3c-0.7,0.2-1.4,0.6-2,1.1c-0.6,0.5-1.1,1.2-1.4,1.9
		c-0.4,0.8-0.6,1.8-0.6,3h12.2c0-1.2-0.1-2.2-0.4-3c-0.3-0.8-0.7-1.4-1.3-1.9c-0.5-0.5-1.2-0.9-1.9-1.1
		C147.1,33.2,146.4,33.1,145.6,33.1z"/>
	<path class="st2" d="M177,34.7h-2.4c-2.3,0-3.9-0.6-4.9-1.8c-1-1.2-1.5-2.6-1.5-4.1c0-0.7,0.1-1.4,0.3-2.2c0.2-0.7,0.6-1.4,1.1-1.9
		s1.2-1,2-1.4c0.8-0.4,1.8-0.5,3-0.5h2.4v-7.5c0-1.2,0.2-2.3,0.6-3.2c0.4-0.9,0.9-1.7,1.6-2.2c0.7-0.6,1.4-1,2.3-1.3
		s1.7-0.4,2.6-0.4s1.8,0.1,2.6,0.4s1.6,0.7,2.3,1.3c0.7,0.6,1.2,1.3,1.6,2.2c0.4,0.9,0.6,2,0.6,3.2v7.5h4.2c1.2,0,2.1,0.2,2.9,0.5
		c0.8,0.4,1.4,0.8,1.9,1.4s0.9,1.2,1.1,1.9c0.2,0.7,0.4,1.4,0.4,2.2c0,1.5-0.5,2.9-1.5,4.1c-1,1.2-2.6,1.8-4.9,1.8h-4.2v17.9
		c0,1.1,0.2,1.8,0.7,2.2c0.5,0.3,1,0.5,1.6,0.6c0.5,0,1,0,1.4-0.1c0.4-0.1,1-0.2,1.7-0.2c1.2,0,2.3,0.4,3.2,1.1
		c0.9,0.7,1.5,1.7,1.7,2.9c0.3,1.5,0.2,2.8-0.3,4c-0.6,1.2-1.3,2.1-2.3,2.7c-0.8,0.5-1.8,1-3.1,1.4c-1.2,0.4-2.5,0.6-3.7,0.6
		c-2.4,0-4.5-0.3-6.4-0.8c-1.9-0.5-3.5-1.4-4.8-2.5c-1.3-1.2-2.3-2.7-3-4.5c-0.7-1.9-1-4.2-1-6.9V34.7z"/>
	<path class="st3" d="M206.1,12.2c0-2.4,0.7-4,2.2-5.1c1.5-1,3.2-1.5,5.3-1.5c2,0,3.8,0.5,5.3,1.5c1.5,1,2.2,2.7,2.2,5.1
		c0,1.2-0.2,2.2-0.6,3.1c-0.4,0.8-0.9,1.5-1.6,2.1c-0.7,0.5-1.5,0.9-2.4,1.2s-1.9,0.4-2.9,0.4s-2-0.1-2.9-0.4
		c-0.9-0.2-1.7-0.6-2.4-1.2c-0.7-0.5-1.2-1.2-1.6-2.1C206.3,14.4,206.1,13.4,206.1,12.2z M206.1,29.1c0-2.5,0.7-4.3,2.2-5.5
		c1.5-1.2,3.2-1.7,5.2-1.7c2,0,3.8,0.6,5.2,1.7c1.5,1.2,2.2,3,2.2,5.5v37.3h-14.8V29.1z"/>
	<path class="st3" d="M255.6,66.4l-0.6-3c-1.4,1.3-3,2.3-4.9,3.1s-3.9,1.2-6,1.2h-1.6c-1.5,0-3.1-0.2-4.8-0.7
		c-1.7-0.5-3.3-1.2-4.8-2.3c-1.5-1.1-2.7-2.6-3.7-4.5c-1-1.9-1.5-4.2-1.5-7.1c0-2.7,0.5-5,1.4-6.8c1-1.8,2.2-3.3,3.9-4.4
		c1.6-1.1,3.5-1.9,5.6-2.4c2.1-0.5,4.4-0.7,6.7-0.7h7.4c0-1.1-0.3-1.9-0.6-2.6c-0.4-0.7-0.8-1.2-1.4-1.7c-0.6-0.4-1.3-0.7-2.1-0.9
		c-0.8-0.2-1.6-0.3-2.5-0.3c-0.8,0-1.6,0.1-2.4,0.2c-0.8,0.1-1.6,0.3-2.4,0.6c-0.6,0.2-1.1,0.4-1.6,0.6s-1.1,0.5-1.8,0.8
		c-0.7,0.3-1.4,0.5-2.1,0.5c-0.7,0-1.5-0.1-2.2-0.3c-0.7-0.2-1.4-0.6-2-1c-0.6-0.5-1.1-1.1-1.4-1.8c-0.7-1.4-0.8-2.8-0.3-4.2
		c0.5-1.4,1.3-2.5,2.6-3.5c1-0.7,2-1.3,3.2-1.8c1.2-0.5,2.4-0.9,3.7-1.2c1.3-0.3,2.6-0.5,3.9-0.7c1.3-0.1,2.6-0.2,3.9-0.2
		c2.6,0,5.1,0.3,7.5,0.8c2.4,0.6,4.5,1.5,6.3,3c1.8,1.4,3.2,3.4,4.3,5.9c1.1,2.5,1.6,5.7,1.6,9.6v25.8H255.6z M252.8,49.4h-6.6
		c-1.4,0-2.4,0.3-3.2,1c-0.7,0.6-1.1,1.5-1.1,2.7c0,1.2,0.4,2.1,1.1,2.7c0.7,0.6,1.7,0.9,3,0.9h1c0.7,0,1.3-0.1,2-0.3
		c0.7-0.2,1.3-0.5,1.8-0.9c0.6-0.4,1-0.9,1.4-1.4c0.4-0.6,0.5-1.2,0.5-2V49.4z"/>
	<path class="st3" d="M274,66.4V28.6c0-1.2,0.2-2.2,0.6-3.1c0.4-0.9,0.9-1.6,1.6-2.2c0.7-0.6,1.4-1.1,2.3-1.4
		c0.9-0.3,1.8-0.5,2.7-0.5c1.4,0,2.7,0.3,3.9,1c1.2,0.7,2.1,1.7,2.8,3c1.4-1.3,3-2.3,4.9-3c1.8-0.7,3.7-1,5.7-1
		c2.3,0,4.5,0.3,6.4,0.9c2,0.6,3.7,1.7,5.2,3.2c1.5,1.5,2.6,3.5,3.5,6.1c0.9,2.5,1.3,5.7,1.3,9.5v25.3H300V40.3
		c0-1.2-0.2-2.2-0.5-3.1c-0.4-0.8-0.8-1.5-1.4-2.1c-0.6-0.5-1.2-0.9-1.8-1.1c-0.7-0.2-1.3-0.3-1.9-0.3c-0.6,0-1.3,0.1-1.9,0.3
		c-0.7,0.2-1.3,0.6-1.9,1.1c-0.6,0.5-1,1.2-1.4,2.1c-0.4,0.8-0.5,1.9-0.5,3.1v26.1H274z"/>
</g>
<path class="st2" d="M26.2,41.1c0,0,4.3-6.1,13-6.5c0,0,4.3,4.2-3,11.5C36.1,46.1,27.3,47.3,26.2,41.1z"/>
<g>
	<g>
		<path class="st2" d="M57.7,0H12.4c-6.6,0-12,5.4-12,12v4.8c2.3-0.4,5.8-0.9,9.9-0.9c0,0,10.3-19.1,19.1-11.5c0,0,7,8.1-5,8.1
			c0,0-8.6,0.9-9.3,4.3c0,0,7.1,0.3,15.7,11.6c0,0,20.3-5,16.3,16.9S16.4,67.2,16.4,67.2l-0.3,2h41.6c6.6,0,12-5.4,12-12V12
			C69.7,5.4,64.3,0,57.7,0z"/>
	</g>
</g>
</svg>
