<?xml version="1.0" encoding="utf-8"?>
<!-- Generator: Adobe Illustrator 23.0.1, SVG Export Plug-In . SVG Version: 6.00 Build 0)  -->
<svg version="1.1" id="Isolation_Mode" xmlns="http://www.w3.org/2000/svg" xmlns:xlink="http://www.w3.org/1999/xlink" x="0px"
	 y="0px" viewBox="0 0 45.4 42.2" style="enable-background:new 0 0 45.4 42.2;" xml:space="preserve">
<style type="text/css">
	.st0{fill:#6B88C5;}
</style>
<path class="st0" d="M40.6,36.1l-8.9-8.8c2-2.7,3.4-6.3,3.4-9.9c0-9.2-7.6-16.6-16.7-16.3c-8.2,0.3-15,6.8-15.6,15
	C2,25.6,9.6,33.7,18.9,33.7c3.6,0,7.1-1.4,9.8-3.3l8.8,8.8c1,1,2.4,1.2,3.4,0.2C41.9,38.4,41.6,37.1,40.6,36.1z M18.9,29.8
	c-6.8,0-12.3-5.5-12.3-12.4S12.1,5,18.9,5c6.8,0,12.3,5.5,12.3,12.4S25.7,29.8,18.9,29.8z"/>
</svg>
