<?xml version="1.0" encoding="utf-8"?>
<!-- Generator: Adobe Illustrator 23.0.1, SVG Export Plug-In . SVG Version: 6.00 Build 0)  -->
<svg version="1.1" id="Layer_1" xmlns="http://www.w3.org/2000/svg" xmlns:xlink="http://www.w3.org/1999/xlink" x="0px" y="0px"
	 viewBox="0 0 127.56 127.56" style="enable-background:new 0 0 127.56 127.56;" xml:space="preserve">
<style type="text/css">
	.st0{fill:#FFFFFF;stroke:#666766;stroke-miterlimit:10;}
	.st1{fill:#EDA594;}
	.st2{fill:#666766;}
	.st3{fill:none;stroke:#666766;stroke-linecap:round;stroke-miterlimit:10;}
	.st4{fill:#FCDBD8;}
	.st5{fill:none;stroke:#E99585;stroke-linecap:round;stroke-miterlimit:10;}
</style>
<path class="st0" d="M22.14,43.26c0,0,0.52-14.19,13.94-12.58c0,0,2.32-12.39,16-7.48c0,0,6.97-7.48,18.32-2.84
	c0,0,6.45-3.61,12.9,2.84c0,0,11.35-2.38,13.16,7.16c0,0,7.48,1.42,8,11.74c0,0,8.52,4.61,5.68,11.35c0,0,7.15,5.03,0.65,11.61
	c0,0,6.05,7.86-2.19,13.03c0,0,2.05,6.16-2.58,8.27c0,0,0.71,7.09-7.03,9.93c0,0-2.28,8.61-13.68,6.71c0,0-2,7.35-13.87,2.71
	c0,0-11.61,6.76-19.87,0.05c0,0-11.87,3.87-15.74-4.13c0,0-12.39-1.29-11.87-11.1c0,0-9.81-3.1-4.65-14.71c0,0-8-6.06-0.52-16.58
	C18.78,59.24,10.4,49.06,22.14,43.26z"/>
<g>
	<path class="st1" d="M64.29,69.21c0,0-0.57,2.15-4.84,3.71c0,0-1.54,9.44,4.45,9.12s5.1-9.12,5.1-9.12S64.43,71.23,64.29,69.21z"/>
	<ellipse class="st2" cx="57.22" cy="63.2" rx="2.58" ry="3.71"/>
	<ellipse class="st2" cx="72.13" cy="63.2" rx="2.58" ry="3.71"/>
	<path class="st2" d="M64.29,65.85c-2.13-0.13-2.97,0.77-2.97,0.77v0.06c0.21,2.65,2.97,2.52,2.97,2.52s2.76,0.13,2.97-2.52v-0.12
		C67.26,66.57,66.42,65.73,64.29,65.85z"/>
	<g>
		<path class="st3" d="M64.29,69.01c1.89,5.05,9.09,4.5,11.18,1.39"/>
		<path class="st3" d="M63.9,69.01c-1.89,5.05-8.85,4.7-11.18,1.39"/>
		<path class="st3" d="M59.45,72.92c-0.06,3.42-0.48,9.52,4.84,9.1c5.32-0.42,4.71-9.1,4.71-9.1"/>
	</g>
</g>
<ellipse class="st4" cx="90.7" cy="69.01" rx="8.71" ry="4.89"/>
<ellipse class="st4" cx="38.05" cy="69.01" rx="8.71" ry="4.89"/>
<polyline class="st5" points="63.9,74.16 63.78,77.27 63.78,79.1 "/>
</svg>
